<svg xmlns="http://www.w3.org/2000/svg" height="250.9" viewBox="0 0 241.99998 250.89584" width="242"><g transform="matrix(1.25 0 0 -1.25 -1106.9 235.33)"><g><path d="m886.25 187.39h65.521l59.774-92.727v34.643h-9.8656v58.084h74.946v-57.516h-10.222v-83.405h10.222v-58.196h-65.58l-60.204 95.562 0.24718-36.967h10.22v-58.595h-74.947v58.084h9.9655v83.348h-10.077v57.685z" fill="#e31937"/><path d="m10.469 9.8105v54.201h3.6836l5.3047-0.0039c-0.522 11.95-0.703 23.913-1.222 35.336l-0.002 0.08594c-0.06104 4.1322 0.02497 8.365-0.4707 12.295-3.9371 2.048-7.4786 4.6098-10.967 7.0781-0.36117 0.25636-0.64655 0.59628-0.85156 0.97852l-0.40234 0.31641 0.00977-0.006c-1.3844 1.0873-2.5092 2.4611-3.3262 4-0.80808 1.5359-1.3144 3.2484-1.3203 5.0547 0 0.90909 0.13636 1.8468 0.44531 2.7559l0.11914 0.29102c0.52286 1.0903 1.2442 1.9276 2.082 2.6406 0.4189 0.35354 0.87285 0.66817 1.3809 0.93555 0.51099 0.26144 1.0791 0.4879 1.7832 0.58594 1.2091 0.15745 2.3842-0.47313 2.9219-1.5664 0.10826-0.22132 0.17729-0.45355 0.22461-0.6875 1.2692-2.0102 2.9384-3.9444 4.8594-5.6582 0.97133-0.86908 2.0044-1.6727 3.0605-2.418 0.18785 3.5432 0.32031 6.7262 0.32031 10.361 0 0.7546-0.003 1.5452-0.01172 2.3711v0.11524l1.1348 38.186 0.21484 7.6582 0.02734 0.32226c0.04792 0.3111 0.09134 0.67702 0.13281 1.0215l-9.1328 0.0684v54.674h74.926v-54.701h-12.336l-0.05469-24.105c1.532-1.2133 2.7288-2.6753 3.7441-4.1836 0.42073 1.4358 0.97818 2.9303 1.8418 4.4102 0.20796 0.35947 0.48748 0.65881 0.82617 0.89648 0.3357 0.2347 0.77148 0.52551 1.3359 0.79883 0.56744 0.26441 1.2723 0.55062 2.2676 0.5625 0.58822 0.003 1.2909-0.13475 1.9355-0.48828 0.14855-0.0802 0.26187-0.15383 0.39258-0.25781 1.025-0.80214 1.8309-1.7474 2.4785-2.7129 0.60572-0.9095 1.0634-1.8301 1.4746-2.7422 0.89472 1.6601 1.8987 3.3515 3.0918 4.9258 1.2923 1.6993 2.825 3.2824 4.7441 4.4707 1.9103 1.1884 4.2272 1.9347 6.7852 1.9258 0.19309 0 0.3918-0.003 0.58789-0.0117 0.20498-0.009 0.37516-0.0335 0.57421-0.084 1.0903-0.27926 1.9958-0.80523 2.7949-1.4707 0.41913-0.35634 0.8048-0.75656 1.1484-1.209 0.51404 6.0672 1.2863 11.997 2.2148 17.566l0.0898 0.375c0.17825 0.5407 0.39524 1.2774 1.0488 2.1152 0.3268 0.40998 0.79245 0.84151 1.3926 1.1445 0.59415 0.306 1.2927 0.46 1.9434 0.45704 0.19608 0 0.38994-0.0114 0.58008-0.0352 0.16636-0.0208 0.35324-0.0608 0.51367-0.11133 0.84671-0.25549 1.6095-0.80044 2.0938-1.3887 0.73378-0.89423 0.95676-1.7202 1.1172-2.2461 0.0773-0.26737 0.12747-0.47211 0.16016-0.58203l0.0273-0.084c0.23673-0.48373 0.33599-1.0262 0.2754-1.5606-0.33058-2.9488-0.57354-5.8419-0.76368-8.7129l43.166 67.039h67.146v-55.197h-12.42v-18.682c0.58387-0.99891 1.0692-2.021 1.4727-3.0215l0.0781-0.21679c1.4468-4.7058 2.001-9.3125 1.998-13.822 0-7.1071-1.3524-13.966-2.7422-20.867 1.6065-0.895 3.2706-1.6695 4.957-2.2949 0.99444-0.33655 1.9468-0.5244 2.7441-0.52148 0.63563 0 1.1652 0.10641 1.6465 0.32031 0.47837 0.21984 0.94708 0.54706 1.4551 1.168 0.62687 0.77242 1.623 1.1582 2.6094 1.0156 0.44275-0.0683 1.2177-0.14244 2.1387-0.43359 0.46038-0.14557 0.96569-0.35306 1.4766-0.66797 0.51112-0.31194 1.0252-0.73953 1.459-1.2832l0.0996-0.13477c0.85262-1.2091 1.7835-2.6584 2.5352-4.2656 0.74575-1.6072 1.3513-3.375 1.3633-5.3477 0-1.1735-0.24692-2.4418-0.88868-3.6094-0.45749-0.83184-1.2878-1.3767-2.2324-1.4629-0.77237-0.0713-1.5451-0.10352-2.3203-0.10352-4.0168 0-7.9811 0.90142-11.736 2.3066-2.113 0.79007-4.1518 1.7513-6.1133 2.8047v-14.996c0.26349-1.1402 0.47461-2.3863 0.47461-3.7773 0-0.18122 0.00078-0.36558-0.0117-0.55274-0.0125-0.29115-0.0717-0.58216-0.16992-0.85547h-0.002c-0.078-0.22264-0.17735-0.44259-0.29102-0.65625v-31.779h12.42v-54.059h-75.492v54.34h12.635v40.252c-0.19109-0.10546-0.37925-0.2131-0.58008-0.31054l-0.40429-0.16211c-1.1555-0.3565-2.3543-0.49312-3.5664-0.4961-1.9162 0.0113-3.8526 0.33984-5.6055 1.1152l-0.22851 0.11523c-3.2086 1.8003-5.8499 4.1381-8.0098 6.7852-0.60624 0.74348-1.1635 1.5179-1.6992 2.3047-0.0826-0.39219-0.17779-0.78693-0.30273-1.1816-0.404-1.3012-1.0329-2.5978-1.8945-3.9258-0.11-0.17228-0.22938-0.31535-0.375-0.46093-0.82588-0.8259-1.776-1.4623-2.7891-1.9258-0.86353-0.38883-1.7772-0.65573-2.7637-0.73633l-61.843-95.71h-66.648zm7.3633 7.3594h55.277l48.791 75.52c-0.83214-0.88553-1.8084-1.7724-2.9531-2.5293-0.72192-0.47238-1.5095-0.89407-2.377-1.209-0.86749-0.31491-1.8248-0.51953-2.8438-0.51953-1.2804-0.0062-2.6463 0.34712-3.8555 1.0898-0.64765 0.39511-1.1148 1.0425-1.2871 1.7793-1.3578 5.8014-1.7678 11.639-1.7832 17.414-0.1223-0.74955-0.33239-1.515-0.68164-2.2676-0.29412-0.63873-0.82305-1.1525-1.4707-1.4258-0.61199-0.26143-1.2814-0.39163-1.9082-0.38867-0.92393 0-1.7207 0.25846-2.3535 0.56446-0.95663 0.46642-1.6328 1.0391-2.1973 1.5293-0.55259 0.49019-1.0019 0.9177-1.2188 1.0781l-0.17578 0.15234c-2.546 2.341-4.158 5.331-5.1562 8.3613-0.01789 0.0545-0.03132 0.10954-0.04883 0.16406l-0.78516-1.2188c0.0037-0.0627 0.0082-0.12479 0.01172-0.1875 0.09428-0.39279 0.15628-0.78492 0.1543-1.1602 0-0.72489-0.1515-1.3691-0.35352-1.9336-0.30896-0.84372-0.73423-1.5222-1.168-2.1074-0.43375-0.58526-0.88605-1.0745-1.2871-1.4785-0.11875-0.11875-0.21592-0.19883-0.34961-0.29687-0.68032-0.48721-1.4894-1.0547-2.4668-1.5449-0.06682-0.0331-0.14214-0.0632-0.21094-0.0957l-6.1797-9.5957c0.4499-1.2767-0.05474-2.7016-1.2383-3.3906-0.443-0.25615-0.89373-0.46052-1.3477-0.62695l-10.924-16.965 0.04102 17.703-12.594 3.7422c-0.281-3.469-0.391-6.392-0.391-9.281 0-4.3018 0.24146-8.5861 0.50586-14.492v-0.002c0.01787-0.41296 0.04492-0.91216 0.04492-1.4707 0-0.7843-0.0491-1.6933-0.31055-2.6855-0.25848-0.98632-0.76378-2.0615-1.6016-2.9824l-0.16211-0.16406c-0.81105-0.76352-1.7391-1.3039-2.666-1.6426-0.92989-0.33868-1.8598-0.48438-2.7422-0.48438-0.15449 0-0.3084 0.007-0.46289 0.01563-0.2347 0.01125-0.45094 0.05272-0.67969 0.12109-0.67439 0.21686-1.5247 0.50765-2.4219 1.084-0.44562 0.29115-0.90634 0.66121-1.3223 1.1484-0.41889 0.48721-0.78296 1.095-1.0117 1.7812-0.08325 0.25252-0.1307 0.52074-0.14258 0.78516-0.11875 3.0748-0.16797 6.2184-0.16797 9.4121 0 7.6317 0.26622 15.538 0.46875 23.379l-5.6895 2.3242c-0.484-14.501-0.794-28.647-0.859-42.891-0.0025-0.49614-0.13717-0.98721-0.38672-1.418l-0.99219-1.7031c-0.26441-0.45454-0.66053-0.83451-1.127-1.0781-0.01812-0.0097-0.03842-0.01771-0.05664-0.02734v-0.4082h-0.875c-1.1455-0.47669-2.438-0.78162-3.832-0.7793-0.30898 0-0.6226 0.01517-0.9375 0.04492-0.26441 0.02375-0.49169 0.07484-0.73828 0.16992-0.3831 0.14457-0.8356 0.32477-1.3203 0.56641l-5.1816 0.002v-39.479zm144.07 0h60.775v39.338h-12.422v37.816c-3.4748 2.5252-6.3972 5.9099-8.5059 9.7168-2.1598 3.9156-3.4726 8.2878-3.4785 12.676 0 1.0858 0.0848 2.1692 0.25781 3.2441l-6.2383 15.266c-1.1757 1.0082-2.2848 2.1496-3.2969 3.3906 0.30037-0.95409 0.61314-1.9106 0.94726-2.8691 2.3082-6.628 5.3522-13.345 8.1895-20.217 0.12125-0.29115 0.19593-0.62649 0.21093-0.94141 0.0125-0.16339 0.0425-0.43154 0.0937-0.79101 0.0487-0.35948 0.11274-0.81334 0.11524-1.3867 0-0.59417-0.0848-1.3516-0.42578-2.127-0.33263-0.77837-0.92885-1.4978-1.6211-2.0117-0.21387-0.16044-0.41756-0.27213-0.66406-0.36719-0.927-0.36839-1.8855-0.55571-2.8125-0.55273-1.6756 0-3.1142 0.58827-4.2461 1.2656-1.2402 0.75193-2.1982 1.5707-3.0762 2.3086 0.13842-1.2168 0.1801-2.393 0.17774-3.5156 0-0.73974-0.0163-1.4647-0.0312-2.1777-0.0125-0.55258-0.1872-1.0982-0.50195-1.5527-0.25563-0.3565-0.58721-0.93992-1.2676-1.6113-0.33875-0.32976-0.79095-0.67902-1.3613-0.9375-0.56725-0.26441-1.2447-0.41313-1.9043-0.41015-0.13814 0-0.27202 0.0204-0.4082 0.0312-0.9716 0.009-1.9374 0.19479-2.8887 0.55664-0.96263 0.37133-1.9199 0.92895-2.7578 1.7578l-0.10157 0.11133c-0.0422 0.047-0.0812 0.0971-0.12304 0.14453v-46.531h-12.635v-39.623zm-116.14 52.644c0.19965 0.01675 0.40449 0.05124 0.59961 0.12305 0.22341 0.08129 0.42713 0.20635 0.62695 0.37305 0.11228 0.14552 0.1945 0.29205 0.26172 0.54102 0.08025 0.28816 0.12409 0.70964 0.12109 1.2266 0 0.36483-0.01835 0.77979-0.03906 1.2246-0.2614 5.8634-0.50976 10.224-0.50976 14.742 0 3.978 0.19563 8.0506 0.73633 13.279 0.08613 0.83779 0.54302 1.602 1.2441 2.0684 0.57256 0.38333 1.2631 0.52883 1.9375 0.44336-0.26567 0.10834-0.53121 0.21136-0.79688 0.32031-1.12 0.45751-1.8232 1.5702-1.7578 2.7793 1.2758 23.526 2.8812 50.084 11.375 74.959-0.12076 1.0658-0.51185 2.1206-1.2051 3.1289-0.746 1.0835-1.8324 2.081-3.123 2.8652-0.67082 0.25892-1.222 0.39745-1.4473 0.38672-0.0642-0.002-0.06603-0.0126-0.0957-0.0176-0.20891-0.18857-0.38686-0.39133-0.54492-0.65625-0.31789-0.52287-0.57065-1.3048-0.75781-2.2793-0.18774-0.93301-0.32186-2.0154-0.54883-3.1641h0.002c-3.5918-23.883-4.9404-48.339-5.9297-71.877-0.03863-0.87046-0.46678-1.6687-1.1738-2.1797-0.70708-0.51097-1.5978-0.66931-2.4355-0.43164-4.1754 1.1938-7.9932 3.3049-11.586 4.8535v-1.4512c0.58687 0.15465 1.2124 0.13586 1.791-0.10157l11.285-4.6113c1.0873-0.44564 1.7924-1.5238 1.7656-2.6973-0.20795-8.5234-0.51953-17.073-0.51953-25.195 0-2.8643 0.04553-5.6654 0.14063-8.4004 0.04986-0.03172 0.04242-0.03864 0.125-0.07813 0.11217-0.05692 0.29896-0.11526 0.45898-0.17383zm68.021 24.301c0.23652 0.0068 0.51684 0.05435 0.85351 0.17578 0.53774 0.19311 1.1885 0.57315 1.8184 1.0723 0.4885 0.3853 0.94782 0.83738 1.3711 1.2949l0.0137 0.04883c-0.78119 9.6493-2.5044 19.278-3.2227 29.104-0.0564 0.78727 0.21618 1.5613 0.75391 2.1406 0.53773 0.57932 1.2879 0.90235 2.0781 0.90235h0.35547c0.88234 0 1.7123-0.40732 2.25-1.1055 2.9263-3.8176 5.5543-7.8374 8.4688-10.906 1.4557-1.5359 2.9688-2.8314 4.5879-3.7969 0.4732-0.28063 0.95877-0.52584 1.4531-0.75195l6.1074 9.4512c-0.12058 0.45032-0.24333 0.9039-0.37305 1.3984-1.6862 4.3568-4.001 8.7678-6.7715 12.762-2.7985 4.0374-6.0665 7.6399-9.584 10.367-0.64171 0.49614-1.0383 1.2417-1.0918 2.0527-0.0564 0.80807 0.2392 1.5984 0.80664 2.1777 11.441 11.65 24.616 22.086 37.061 32.424 0.0417 0.30809 0.0645 0.62053 0.0645 0.94141 0 1.2329-0.31319 2.5921-0.89844 3.9824-0.52257 1.2388-1.2644 2.492-2.1113 3.6777-0.16448 0.091-0.31959 0.16728-0.45312 0.21875-0.19275 0.0823-0.26932 0.0858-0.32032 0.0918-5.1324-3.6746-9.0006-8.7309-13.682-14.004-7.4895-8.8324-14.248-17.282-21.004-26.715-0.53179-0.73974-1.3995-1.1836-2.3086-1.1836-0.56445 0.003-0.98317 0.0887-1.3516 0.17187-0.54664 0.12775-0.98563 0.27322-1.3184 0.35938-0.11714 0.0341-0.19364 0.0495-0.27148 0.0664-0.72025-0.19663-1.5026-0.1078-2.166 0.27539-0.30587 0.17567-0.55169 0.41764-0.76758 0.6836l-0.0898-0.13672c0.00036-0.0892 0.001-0.17836 0.002-0.26758 0.006-1.0576-0.58464-2.045-1.5234-2.5352-0.19266-0.0997-0.42989-0.32556-0.70117-0.65039l-2.0723-3.2168c0.26293-0.36936 0.44508-0.79308 0.50781-1.252 0.0595-0.49019 0.24676-1.0455 0.41016-1.2832 0.0772-0.11884 0.13461-0.16296 0.14648-0.17187l0.0703-0.0215c1.3666-0.18716 2.3987-1.3266 2.4492-2.7051 0.0475-1.3072 0.0684-2.6147 0.0684-3.9219-0.002-8.8205-0.93071-17.678-0.92773-26.275 0-5.0942 0.32796-10.09 1.3125-14.939zm9.3555 0.49219 8.3262 12.885c-0.42767 0.2167-0.85547 0.43312-1.2617 0.67578-3.3066 1.9756-5.9152 4.7045-8.2324 7.5625-0.24452 0.3022-0.47419 0.61102-0.71289 0.91601 0.79115-6.5303 1.7496-13.171 2.2852-20.004 0.0267-0.3357-0.0118-0.70063-0.10742-1.0215l-0.29688-1.0137zm-50.217 6.4766 4.416 6.8594c-0.7551 1.8205-1.0979 3.5624-1.3184 5.1172-0.02148 0.15567-0.03515 0.28735-0.05469 0.43945l-0.32031-1.3926c-0.0445-0.19905-0.09554-0.34799-0.18164-0.53515-0.5912-1.2775-1.4598-2.3118-2.4609-3.209-0.03971-0.0347-0.08293-0.0654-0.12305-0.0996l-0.01758-7.1543c0.02025-0.008 0.0403-0.0171 0.06055-0.0254zm137.33 0.81055v65.166c-0.76094 0.63479-1.5711 1.0853-2.4414 1.3144-0.83749 0.16008-1.7222 0.24609-2.6289 0.24609-2.2846 0.003-4.7065-0.5266-6.8633-1.5664-2.145-1.0312-4.0219-2.5504-5.3887-4.543-0.64052-1.1129-1.1463-1.9888-1.5625-2.8125-0.43375-0.86155-0.79447-1.6968-1.1836-2.8555-0.28127-0.85117-0.94713-1.5017-1.7774-1.7852 0.0533-0.0891 0.1143-0.19563 0.13086-0.21679 0.78199-0.62557 1.1888-1.617 1.043-2.6211-0.0438-0.31491-0.0684-0.64757-0.0684-0.99218-0.0125-1.8508 0.71272-4.1435 1.9961-6.3301 1.2656-2.1866 3.0624-4.2548 4.916-5.7402 0.3745-0.30005 0.66939-0.69499 0.85352-1.1406l6.8125-16.676c0.214-0.52585 0.26626-1.0988 0.15039-1.6543-0.199-0.95662-0.29688-1.9487-0.29688-2.9707 0-3.2323 1.002-6.7409 2.7695-9.9316 0.97359-1.7649 2.1809-3.4205 3.5391-4.8906zm-144.74 2.168 0.0039 1.7617c-0.35486 0.0475-0.72517 0.12336-1.1152 0.25976-0.72191 0.24955-1.5104 0.73503-2.0957 1.4629-0.1515 0.18418-0.25735 0.35642-0.36133 0.57031-2.9738 6.2418-4.2581 12.279-4.7988 18.318-0.46597 5.2126-0.40997 10.487-0.43164 16.014-1.4346-11.477-2.148-22.884-2.7422-33.793 3.8301-1.5515 7.6804-3.0687 11.541-4.5938zm114.69 2.3945c0.005 0.31717 0.0137 0.64967 0.0137 0.95508 0 2.5757-0.20303 4.6926-1.2695 7.0723-0.3565 0.79619-0.33327 1.7002 0.0684 2.4726 0.39813 0.7754 1.1229 1.3161 1.9785 1.4824 0.46938 0.0921 0.94002 0.13672 1.4004 0.13672 1.6756 0 3.1132-0.58827 4.248-1.2656 1.7054-1.0339 2.9583-2.2843 4.0605-3.1191 0.54351-0.42187 1.0288-0.74066 1.418-0.92188 0.28238-0.1305 0.49344-0.18322 0.68946-0.21094-0.0229 0.16679-0.0443 0.43253-0.0703 0.6543-2.7434 6.639-5.7685 13.324-8.1543 20.166-0.84151 2.4153-1.5955 4.8553-2.2324 7.3184 1.0986-4.3443 2.4312-8.8099 3.752-13.318 0.35062-1.1943-0.11742-2.4817-1.1543-3.168-1.0368-0.68627-2.4076-0.61345-3.3672 0.17383-0.66537 0.54663-1.4931 1.0499-2.3516 1.3945-0.86162 0.35056-1.7449 0.53906-2.5293 0.53906-0.51099 0-0.97626-0.075-1.416-0.22656-0.24617-0.0834-0.4992-0.11997-0.75195-0.13477v-11.27c0.14876-0.50646 0.30061-1.0137 0.48242-1.5098 0.91846-2.5301 2.2541-4.8761 3.8008-6.6152 0.16396-0.15741 0.43055-0.33056 0.74414-0.44922 0.22078-0.0863 0.44234-0.13048 0.64062-0.15625zm-17.57 2.6582c0.65211-0.002 1.2376 0.0807 1.6738 0.19336 0.57396 0.30379 1.007 0.61491 1.3164 0.92969 0.517 0.52882 0.8037 1.0748 1.0176 1.8086 0.20801 0.72786 0.2978 1.6361 0.29493 2.6641 0 1.3785-0.15728 2.9335-0.16016 4.5586v0.0488c-0.72912 5.017-2.8635 10.203-6.0039 14.758-0.56936 0.82736-1.1829 1.6238-1.8144 2.4043l-9.7266-15.053c1.1191-2.3342 2.4122-4.4961 3.9551-6.3867 1.7396-2.1271 3.7779-3.9252 6.252-5.3418 0.77625-0.33953 2.0479-0.59548 3.1953-0.58399zm-55.807 2.418c0.12592 7.06 0.7101 14.022 0.86133 20.73l-2.4785-14.779c0.12251-0.72824 0.42129-1.638 0.79688-2.7363 0.30349-0.92577 0.65169-1.99 0.82031-3.2148zm-5.8867 0.33789c-0.0957 0.34401-0.18439 0.67655-0.32031 1.0762-0.38026 1.1646-0.91432 2.5438-1.1074 4.2461-0.02975 0.26441-0.02106 0.51395 0.02344 0.77539l2.459 14.674-5.9883-9.3008c0.13817-1.7224 0.46255-3.5422 1.0254-5.248 0.77242-2.3589 1.9755-4.4667 3.6035-5.9551l-0.002-0.002c0.11237-0.0922 0.20477-0.17627 0.30664-0.26563zm-77.582 0.82422v11.248c-0.05818-1.0177-0.09267-1.8496-0.16211-2.9961-0.05638-0.95662-0.59878-1.8265-1.4336-2.2988-0.83481-0.47237-1.8613-0.49149-2.7109-0.0488-2.8015 1.4587-5.591 3.3575-8.1133 5.6094-1.5728 1.4059-3.0421 2.9485-4.332 4.6191 0.05359-0.63287 0.26157-1.3677 0.64258-2.084 0.43968-0.84075 1.0966-1.628 1.8066-2.1836l0.00781-0.008 1.3496-1.0664c0.25995-0.2058 0.46198-0.46069 0.63281-0.73438 3.5618-2.5248 6.9857-4.911 10.535-6.5918 0.84075-0.40107 1.4295-1.1807 1.584-2.0957 0.07541-0.45677 0.13333-0.91312 0.19336-1.3691zm42.176 1.5312 0.10156 44.316c-0.05988-0.04-0.13414-0.10844-0.21289-0.19336-1.1372-1.7594-1.8797-3.9801-2.3242-6.3184-0.45604-2.3803-0.61662-4.8402-0.7207-6.9941 0.0687-6.624-0.0786-12.529 0.42383-18.094 0.39467-4.3482 1.1746-8.4887 2.7324-12.717zm-25.125 0.15625c0.98293 22.414 2.3709 45.697 5.8184 68.621l0.02539 0.14843c0.24955 1.1616 0.38888 2.7946 0.86719 4.5801 0.24658 0.89126 0.59203 1.8368 1.1387 2.7637 0.54366 0.92394 1.3066 1.8201 2.2988 2.5391l0.34766 0.21679c0.94472 0.50505 1.9737 0.70415 2.8828 0.70117 1.536-0.0148 2.7508-0.46823 3.752-0.85742l0.37695-0.18554c2.035-1.1884 3.8002-2.7657 5.1133-4.6641 1.3072-1.8924 2.1618-4.1345 2.2539-6.5469 0.01488-0.35948-0.03545-0.70429-0.1543-1.043-2.4442-7.0421-4.301-14.277-5.7559-21.578 0.40416 0.87981 0.86628 1.7443 1.4199 2.5762l0.16406 0.22265c0.76352 0.94177 1.7419 1.643 2.7461 2.0352 0.66702 0.26721 1.3231 0.40075 1.9453 0.46484l0.06641 29.084h12.32v39.982h-60.203v-40.01l6.3379-0.0469c1.221 0.52275 2.4996 0.74609 3.7441 0.74609 1.6578-0.003 3.2645-0.36957 4.7559-0.97265 1.4914-0.60309 2.8732-1.4474 4.0586-2.4961l0.12109-0.11523c1.1438-1.1497 2.0408-2.5158 2.6914-3.9805 0.64171-1.4646 1.0468-3.0274 1.0527-4.6465l-0.0059-0.28321-0.04297-0.4082c-3.7487-21.042-4.8565-43.454-5.8262-64.287 1.9687-0.90511 3.8695-1.7994 5.6895-2.5606zm41.156 0.12305 3.166 4.918c-0.37879 3.3365-0.90779 6.6884-1.4336 10.07-0.78134 5.0445-1.5244 10.152-1.5273 15.369 0 1.9608 0.10783 3.9363 0.36328 5.9238 0.03862 0.31491 0.1338 0.62792 0.27344 0.91016 0.1515 0.30302 0.36136 0.61628 0.64062 0.89257 0.40998 0.4189 0.95374 0.71015 1.4023 0.83789 0.25946 0.0751 0.47745 0.10863 0.66992 0.12696-0.3071 0.78286-0.60139 1.5508-0.9043 2.2305-0.35058 0.79322-0.71238 1.4939-1.1016 2.0762-0.07188 0.10672-0.14934 0.18855-0.22266 0.28711-0.44505-1.019-0.77548-2.1177-1.0645-3.3242-0.40998-1.6934-0.73395-3.574-1.3281-5.5644-0.3357-1.117-1.313-1.9127-2.4746-2.0137-0.03942-0.003-0.07792-0.00017-0.11719-0.002 0.81212-1.9835 1.3788-3.937 1.748-5.8457 0.67141-3.4432 0.75484-6.7275 0.75781-9.9004 0-1.3161-0.01758-2.615-0.01758-3.9043 0-3.1372 0.09458-6.2101 0.67383-9.3711v-0.008c0.23534-1.3318 0.3526-2.5521 0.49609-3.709zm153.63 2.5547c-0.0918 0.66603-0.35664 1.5285-0.78711 2.4336-0.51867 1.1085-1.2374 2.2563-1.9375 3.2559l-0.041 0.0254c-0.01 0.005-0.0496 0.0121-0.0625 0.0176-0.70716-0.61222-1.4687-1.1178-2.2715-1.4746-1.3101-0.58823-2.6776-0.81938-3.9668-0.81641-1.6578 0.003-3.2089 0.35857-4.6289 0.83985l-0.0703 0.0273c-1.2426 0.4601-2.4618 0.9924-3.6562 1.5742 2.5261-1.5428 5.2137-2.9234 7.9512-3.9453 3.1764-1.1886 6.3951-1.8997 9.4707-1.9375zm-145.73 9.7148 0.9707 1.5078c0.000546 0.005 0.0014 0.009 0.002 0.0137-0.93042 2.883-1.6362 5.5928-2.418 8.4043 0.2522-2.0827 0.55473-4.1895 0.88867-6.3359 0.18384-1.1862 0.37147-2.3839 0.55664-3.5898zm-14.742 0.26953c-0.000763 0.18131-0.0057 0.36881-0.0059 0.54883 0 1.3339 0.01367 2.6328 0.01367 3.9043 0.0025 3.0689-0.0919 5.9624-0.65039 8.8144-0.13377 0.68452-0.2954 1.3674-0.48633 2.0527 0.0107-4.9978 0.47724-10.163 1.1289-15.32zm71.295 2.9727 7.6445 11.83c-1.5448 1.27-3.1748 2.3948-4.8672 3.3301-0.84075 0.46346-1.3907 1.3246-1.459 2.2812-0.03 0.3981-0.0488 0.83827-0.0488 1.3047 0 1.117 0.1053 2.4071 0.49805 3.7559 0.37944 1.3061 1.0635 2.691 2.209 3.8691l-0.004 0.004c0.0122 0.0134 0.0287 0.0238 0.041 0.0371 0.0166 0.0169 0.0281 0.036 0.0449 0.0527l0.006-0.006c0.40032 0.42167 0.87523 0.80611 1.4414 1.0781 0.47622 0.23339 1.0056 0.36774 1.5117 0.41406-0.0738 0.049-0.1444 0.10197-0.21875 0.15039-0.57115 0.11352-1.1407 0.18359-1.6973 0.18359-1.8008 0-3.4547-0.57496-4.7422-1.6406-0.76372-0.81306-1.3248-1.7694-1.6973-2.7949-0.38325-1.0636-0.55964-2.1882-0.55664-3.1953 0-0.15152-0.00078-0.30365 0.0117-0.44922 0.065-1.2567-0.70519-2.4103-1.8965-2.8262-0.60902-0.20796-1.214-0.703-1.6953-1.416-0.45357-0.65642-0.73364-1.4781-0.80274-2.041 0.002-0.12091 0.006-0.245 0.006-0.35937 0-0.5066-0.0159-0.91537-0.0195-1.2715 0.72818 0.25451 1.5262 0.21834 2.2188-0.13476 0.75164-0.38027 1.2953-1.0746 1.4824-1.8945 0.77607-3.3936 1.5925-6.8825 2.5898-10.262zm32.883 2.25c-1.8867 6.5233-3.6198 13.078-4.3652 19.521v-14.672c0.61232-1.5584 1.1652-3.1013 1.707-4.6387 0.15103 0.006 0.30335 0.0176 0.45312 0.0176 0.75542-0.001 1.4907-0.0896 2.2051-0.22851zm-84.404 2.3203 10.619 16.492c0.33383 2.2666 0.61935 4.3235 0.61133 6.1152-0.002 1.9347-0.27483 3.773-1.1152 6.0371-0.0437 0.0933-0.18777 0.29841-0.39063 0.46289-0.11188 0.0977-0.23163 0.17352-0.33203 0.22657-1.4825-0.0121-2.6391-0.38967-3.7676-1.0762-1.6904-1.0309-3.2648-2.9192-4.6641-5.2246-1.4052-2.2994-2.6293-4.95-3.8711-7.3594-0.28299-0.54712-0.73417-0.97093-1.2676-1.2344 0.03954-0.15263 0.07947-0.3064 0.10938-0.45703 0.09212-0.45751 0.07033-0.90296-0.06055-1.3516-0.23914-0.81767-0.464-1.5359-0.65039-2.2129 0.05533-0.007 0.11081-0.0108 0.16602-0.0215 1.0131-0.19311 1.8462-0.92876 2.1641-1.9121 1.0143-3.1359 1.7298-5.8654 2.4492-8.4844zm69.299 4.9316c-0.09 0.1893-0.17566 0.38274-0.26758 0.57031-0.31944 0.65184-0.65412 1.2886-0.99804 1.918l-0.35352-0.54492c0.55713-0.63326 1.0987-1.2794 1.6191-1.9434zm18.146 3.3633c-0.95456 4.0912-1.5491 8.2518-1.5508 12.502v0.46679c0.015 1.2775 0.87468 2.3851 2.1074 2.7148 0.0987 0.026 0.20284 0.0398 0.30468 0.0605-0.38883 0.2886-0.7615 0.50567-1.0859 0.63867-0.0937 0.0194-0.22134 0.0435-0.38282 0.041-0.19525 0.003-0.38143-0.0306-0.50781-0.0664-0.24774-0.43812-0.41455-0.91062-0.5332-1.4746-0.15163-0.73083-0.20117-1.6046-0.20117-2.582 0-0.69315 0.02-1.4432 0.0234-2.2226 0.33964-3.2407 0.99818-6.6183 1.8262-10.078zm-47.873 1.541c0.17152 1.6245 0.76317 3.2454 1.7656 4.7402 0.66814 0.98647 1.5491 1.9209 2.6504 2.6504 0.0995 1.3001 0.3683 2.6443 0.8496 3.9805 0.39254 1.086 0.94641 2.1613 1.6465 3.1816-3.8284-3.3612-7.5376-6.7894-11.092-10.297 1.4626-1.3192 2.8568-2.7444 4.1797-4.2559zm-103.35 2.1777c0.883 11.809 2.1398 23.748 4.1934 35.365-0.0024 0.61277-0.18974 1.47-0.56445 2.3066-0.36055 0.82697-0.89292 1.6213-1.4492 2.1914-0.60312 0.52578-1.3686 1.0068-2.1797 1.3555v-41.219zm126.04 0.0293 1.2324 1.9082c-0.82618 0.92453-1.7195 1.8097-2.6934 2.6504-0.69341 0.30751-1.1825 0.62731-1.5566 0.84375-0.20998-0.31119-0.37942-0.67259-0.50782-1.1074-0.14642-0.49876-0.21061-1.0722-0.24023-1.6484 1.3036-0.80266 2.5597-1.688 3.7656-2.6465zm-37.576 9.832c6.3791 8.7724 12.798 16.772 19.814 25.043l0.0449 0.0527c4.587 5.1188 8.7528 10.734 14.965 15.125l0.21094 0.13477c0.8645 0.50802 1.8406 0.72664 2.7051 0.7207 0.98337-0.003 1.8281-0.24307 2.541-0.53125 0.716-0.29114 1.3191-0.64187 1.8359-0.97461 0.28225-0.18419 0.53237-0.4152 0.73437-0.68554 1.1882-1.5983 2.2758-3.3718 3.0898-5.291 0.80812-1.9192 1.3448-4.0029 1.3476-6.1894 0-1.0665-0.13348-2.1569-0.42773-3.2383-0.1515-0.5615-0.47417-1.0662-0.91992-1.4375-6.6092-5.4985-13.375-10.979-19.939-16.588 1.8454 0.91442 3.8796 1.3789 5.9316 1.377 1.1674 0 2.3445-0.14542 3.5-0.43359 0.28524-0.0713 0.57576-0.19708 0.82226-0.35157 2.961-1.8594 5.5257-4.097 7.7734-6.5762l11.33 17.535v-16.439c0.0461 0.39212 0.10363 0.79006 0.1875 1.1973 0.27025 1.325 0.79862 2.7388 1.7344 4.0371 0.10125 0.13666 0.24934 0.30601 0.37109 0.42187 0.72488 0.66548 1.5334 1.0602 2.2969 1.2949 0.7695 0.23172 1.507 0.31836 2.2051 0.31836 0.67137 0 1.3039-0.0768 1.9219-0.24024l0.22852-0.0723c1.2066-0.4346 2.2307-1.0913 3.1328-1.8262 0.45376 0.85383 0.92749 1.684 1.4688 2.6289l0.11328 0.17578c1.9876 2.9322 4.7002 5.1014 7.6621 6.5215 2.962 1.426 6.182 2.127 9.3223 2.127 1.2834 0 2.5541-0.11874 3.793-0.35938l0.14257-0.0332c0.39243-0.098 0.76969-0.22234 1.1387-0.35742v19.416h12.422v40.479h-55.775l-47.703-74.086c-0.0117-0.95999-0.0161-1.9292-0.0215-2.8945z" transform="matrix(.8 0 0 -.8 885.52 188.27)" fill="#fff"/><path d="m26.465 58.326c-0.365-0.023-0.741-0.018-1.131 0.018-1.138 0.425-2.416 0.992-2.912 2.269-0.639 12.918-0.782 25.975-1.35 38.467-0.071 4.54 0.073 9.44-0.709 14.12-4.186 1.99-8.018 4.76-11.922 7.52l0.2113 0.15-1.3457 1.06c-2.6262 2.06-4.2608 5.75-3.2656 8.66 0.5675 1.21 1.9872 2.41 3.0508 2.55l-0.1426-0.14c2.9828-5.18 8.2328-9.58 13.414-12.28 0.428 7.03 0.638 11.08 0.567 17.68l1.138 38.18 0.211 7.67c0.354 2.48 0.286 4.61 2.912 6.1 2.98 1.35 7.098 0.07 9.653-2.2 1.773-1.78 2.979-4.54 2.908-6.82-3.904-21.92-4.968-45.2-5.963-66.56 3.764-1.64 7.523-3.7 11.287-4.76 0.992 23.56 2.34 48.11 5.961 72.18 0.568 2.76 0.569 6.24 3.195 8.16 1.346 0.71 2.836 0.28 4.256-0.29 3.405-1.98 5.821-5.25 5.963-8.87-8.517-24.55-10.152-51.1-11.43-74.8 8.304-3.41 16.68-6.528 24.913-10.007l0.355-0.85c-1.702-0.995-3.975-0.996-6.316-0.711l-19.59 5.818c-1.135-10.999-0.71-16.536-0.211-27.609 0.071-1.631 0.211-3.619-1.135-5.107-1.138-1.067-2.557-1.419-3.764-1.348-1.134 0.354-2.483 0.92-2.908 2.197-0.425 10.859 0.072 22.783 0.354 34.567l-11.283 4.61c-0.568-15.967-0.922-31.44-0.997-47.052l-0.992-1.705c-0.904-0.479-1.888-0.798-2.982-0.867zm87.375 32.553c-0.84-0.019-1.67 0.181-2.49 0.678-3.62 15.473-0.29 31.793-0.85 47.193-2.06 0.29-2.84 2.34-3.05 3.9l-0.86-0.14-4.25-25.4c0.35-3.27 2.83-6.32 1.2-9.87-1.84-0.78-3.549 1.42-4.823 2.41-5.181 4.76-6.176 13.42-5.395 18.53-1.491 4.47-2.34 8.59-3.974 13.62-0.71-0.85-0.497-2.55-1.846-2.69-1.916 2.69-0.71 5.6 0.143 8.51-0.214 1.07-0.709 1.99-1.702 2.7-0.356 0-0.782 0.14-0.996-0.28-1.488-11.71 2.413-23.5 3.055-35.77 0.564-1.49-0.784-3.2-1.848-4.26-1.773-1.28-3.975-2.7-6.174-1.42-1.277 3.05-1.207 5.96-1.703 8.73-2.13 11.64 1.913 21.36-5.256 32.86-0.707 0.35-1.344 0.85-1.843 0-1.275-11.29 0.57-23.63 2.343-35.06l-0.638-2.77c-0.71-1.56-2.556-3.19-4.258-3.76-1.206-0.36-3.193-0.78-4.117 0.36-5.606 11.77-4.824 22.57-4.967 35.76 0.214 4.4 0.637 10.51 3.617 14.98 1.278 1.56 2.981 1.63 4.615 1.42 5.182-1.28 7.807-7.03 10.008-11.43 1.064 3.55 1.274 7.31 3.262 10.72 0.71 0.5 1.773 1.13 2.555 0.71 2.979-2.34 3.762-6.53 5.464-9.94 3.268 6.32 6.886 15.54 15.328 15.19 1.14-0.29 2.35-1.28 2.84-2.41 2.34-6.18 1.07-10.44 0.22-17.04l0.35-0.28c0.99 1.42 1.77 3.19 3.41 4.04-0.07 11.22 1.13 22.65 2.84 32.87 0.28 0.92 0.71 1.84 1.91 1.7 1.35-0.43 1.28-2.06 1.71-2.84-1.14-10.15-1.35-19.66-1.35-29.52 0.85 0.49 2.62-0.5 3.69-0.5 6.81 9.51 13.62 18.03 21.15 26.9 4.68 5.25 8.73 10.64 14.48 14.69 1.35 0.78 2.9 0.07 4.11-0.71 2.7-3.62 4.69-8.1 3.55-12.28-12.71-10.57-26.12-21.15-37.62-32.86 7.6-5.89 13.77-15.26 17.32-24.48 1.42-5.47 2.77-8.8-0.5-13.84-1.2-1.21-3.05-1.99-4.39-1.85-9.66 1.28-14.62 10.29-20.3 17.67h-0.36c0.71-9.79 2.49-19.59 3.27-29.593l-0.36-1.205c-1.59-1.862-4.03-3.886-6.52-3.943zm99.58 4.789c-0.44 0.028-0.88 0.175-1.22 0.361-7.45 5.251-12.49 15.331-10.72 23.841l-6.81 16.68c-4.68 3.76-8.66 10.29-7.88 15.69-1.28 0.85-1.42 3.76-3.55 3.19-0.14-14.05 6.6-27.61 12.28-41.38 0.07-1.42 0.71-2.83-0.71-3.9-5.39-2.13-8.16 6.1-13.27 5.11 1.63-3.62 1.56-6.88 1.49-10.36-0.64-0.92-1.21-1.92-2.56-1.71-1.2 0-2.69 0.5-3.68 1.5-5.11 5.67-7.53 15.75-5.12 22-3.47 9.65-6.46 19.51-14.83 26.54-1.7 0.57-3.19 2.55-4.75 0.85-1.92-1.91-2.06-4.82-1.92-6.81 10.15-5.61 17.89-16.96 19.45-28.11-0.08-4.26 1.56-10.07-4.26-12.91-2.06-0.64-5.11-0.43-7.17 0.49-11.5 6.46-14.76 20.44-17.53 32.51-0.99-0.43-1.49-0.57-2.77-0.5-1.35 1.28-0.92 2.98-0.99 4.97 0.21 2.2 1.77 5.04 4.4 5.96-0.14 2.77 0.71 6.18 3.12 8.66 2.56 2.2 6.11 2.91 9.51 2.06 11.07-6.96 16.47-19.8 20.44-31.51 3.12 1.06 6.67-0.29 9.01-2.2-2.55 8.73-5.25 17.45-6.1 25.69 0 2.84-0.35 5.96 1.49 8.52 1 0.92 2.7 0.99 3.76 0.7 1.99-0.7 3.76-2.55 4.97-4.25 0.85 2.55 1.71 3.97 3.05 6.31 4.05 5.96 11.72 8.31 17.89 7.1 3.97-0.99 6.6-4.76 8.02-8.3 3.69-12 1.2-23.28-1.21-35.28 2.27-1.41 4.69-2.62 7.17-3.54 3.12-1.07 6.53-1.21 9.01 1.84 1-0.14 2.41-0.28 3.27-1.35 2.06-2.91 4.47-7.24 2.84-10.22-7.81-0.71-16.05 2.77-22.79 7.17-0.99-4.4-0.92-10.08-1.34-14.48 0.35-3.33 1.98-6.17 1.84-9.721-0.35-0.975-1.1-1.258-1.83-1.211z" transform="matrix(.8 0 0 -.8 885.52 188.27)"/><path d="m165.62 111.24c-0.47-0.02-0.93 0.16-1.22 0.53-5.25 7.45-8.8 16.04-10.36 24.41l1.2-0.21c7.66-4.83 11.21-14.9 11.92-23.14 0-1.02-0.77-1.56-1.54-1.59zm-27.62 6.85c-8.73 2.98-15.55 10.36-18.53 18.73l5.25 4.12 4.76-4.61c3.9-5.26 8.52-9.94 9.58-16.68-0.28-0.36-0.07-1.64-1.06-1.56zm66.64 15.68l-0.71 0.36c-4.12 3.9-9.3 10.43-6.96 16.32 0.64 2.34 1.35 6.25 4.62 6.46 0.77-0.43 1.27-1.28 1.7-1.99 2.34-7.45 1.84-13.91 1.35-21.15zm-106.49 2.81l-3.193 11.29 3.547 5.96c1.135 0.85 2.128 2.84 3.408 2.2 0.28-5.61-2.202-13.49-3.762-19.45z" transform="matrix(.8 0 0 -.8 885.52 188.27)" fill="#fff"/><path d="m164.11 117.09c-1.56 1.28-2.34 3.2-3.26 4.9-1.63 1.49 0 3.41 0.71 4.26 1.56-2.77 3.12-5.75 2.55-9.16zm-29.17 4.76c-5.32 2.98-10 8.51-12.42 14.12 0.71 0.57 1.28 1.42 2.2 1.56 4.9-3.83 7.46-9.15 10.93-13.84l-0.71-1.84zm68.14 17.88l-2.35 2.41c-1.56 2.42-2.84 5.82-1.42 8.52 0.79 0.64 0.57 2.2 1.92 2.2 2.2-4.33 2.13-8.52 1.85-13.13z" transform="matrix(.8 0 0 -.8 885.52 188.27)" fill="#e31937"/></g></g></svg>
